<?xml version="1.0" encoding="UTF-8"?>
<svg width="40px" height="40px" viewBox="0 0 40 40" version="1.1" xmlns="http://www.w3.org/2000/svg" xmlns:xlink="http://www.w3.org/1999/xlink">
    <!-- Generator: Sketch 47.1 (45422) - http://www.bohemiancoding.com/sketch -->
    <title>失败</title>
    <desc>Created with Sketch.</desc>
    <defs></defs>
    <g id="Page-2" stroke="none" stroke-width="1" fill="none" fill-rule="evenodd">
        <g id="0-视觉规范" transform="translate(-526.000000, -7036.000000)" fill-rule="nonzero" fill="#E22A41">
            <g id="Group-18" transform="translate(506.000000, 6970.000000)">
                <g id="弹窗-copy">
                    <g id="失败" transform="translate(20.000000, 66.000000)">
                        <path d="M20,0 C9,0 0,9 0,20 C0,31 9,40 20,40 C31,40 40,31 40,20 C40,9 31,0 20,0 Z M29,26.5 C29.75,27.25 29.75,28.25 29,29 C28.25,29.75 27.25,29.75 26.5,29 L20,22.5 L13.5,29 C12.75,29.75 11.75,29.75 11,29 C10.25,28.25 10.25,27.25 11,26.5 L17.5,20 L11,13.5 C10.25,12.75 10.25,11.75 11,11 C11.75,10.25 12.75,10.25 13.5,11 L20,17.5 L26.5,11 C27.25,10.25 28.25,10.25 29,11 C29.75,11.75 29.75,12.75 29,13.5 L22.5,20 L29,26.5 Z"></path>
                    </g>
                </g>
            </g>
        </g>
    </g>
</svg>